<svg width="16" height="16" xmlns="http://www.w3.org/2000/svg"><path d="M6.91 10.914a3.56 3.56 0 0 0 1.335.258 3.559 3.559 0 0 0 3.563-3.555 3.559 3.559 0 0 0-3.563-3.554c-.578 0-1.125.137-1.608.382a1.109 1.109 0 0 0-.839-.382h-.004c-.614 0-1.111.497-1.111 1.11v6.665c0 .614.497 1.111 1.11 1.111h.005c.614 0 1.111-.497 1.111-1.11v-.925zM2 0h12a2 2 0 0 1 2 2v12a2 2 0 0 1-2 2H2a2 2 0 0 1-2-2V2a2 2 0 0 1 2-2zm6.245 8.95A1.334 1.334 0 0 1 6.91 7.617c0-.736.598-1.333 1.336-1.333.738 0 1.336.597 1.336 1.333S8.983 8.95 8.245 8.95z" fill="#FFF" fill-rule="evenodd"/></svg>