<svg height="179" viewBox="0 0 472 179" width="472" xmlns="http://www.w3.org/2000/svg"><path d="m44.8101266 137.995429v18.605754c0 12.370525-10.0283678 22.398817-22.4050633 22.398817-12.3739748 0-22.4050633-10.039633-22.4050633-22.398817v-134.2023665c0-12.3705248 10.0283678-22.3988165 22.4050633-22.3988165 6.7472783 0 12.7979461 2.9850845 16.9055301 7.70361151 9.7277045-4.9269669 20.7319611-7.70361151 32.3856091-7.70361151 39.5967195 0 71.6962025 32.0564119 71.6962025 71.6 0 39.543588-32.099483 71.6-71.6962025 71.6-9.507817 0-18.5833747-1.848239-26.886077-5.204578zm26.8860759-39.545429c14.8487698 0 26.886076-12.0211545 26.886076-26.85 0-14.8288455-12.0373062-26.85-26.886076-26.85-14.8487697 0-26.8860759 12.0211545-26.8860759 26.85 0 14.8288455 12.0373062 26.85 26.8860759 26.85zm86.6329115-77.5316904c0-11.5528634 9.366385-20.9183096 20.91274-20.9183096h2.984647c11.549787 0 20.91274 9.36811491 20.91274 20.9183096v101.3633804c0 11.552864-9.366386 20.91831-20.91274 20.91831h-2.984647c-11.549788 0-20.91274-9.368115-20.91274-20.91831zm59.746859 50.6817064l-.000024-.000016c0-39.5435881 32.099484-71.6 71.696203-71.6 12.229308 0 23.743483 3.05773797 33.817752 8.44941208.483652.25884727 3.745333 1.91913972 4.515523 6.01768122.651587 3.4673936-1.096802 5.6177554-1.12016 5.6508715-5.15078 7.3024177-9.235348 15.408843-12.027631 24.0935077-.48877 1.5201898-1.23696 4.1039454-4.370405 5.3554211-3.133446 1.2514757-6.148739-.5224699-7.432299-1.2595481-3.940936-2.2630648-8.510507-3.5573455-13.38278-3.5573455-14.84877 0-26.886076 12.0211545-26.886076 26.85 0 14.8288455 12.037306 26.85 26.886076 26.85 4.872273 0 9.441844-1.2942807 13.38278-3.5573455 1.28356-.7370782 4.298853-2.5110238 7.432299-1.2595481 3.133445 1.2514757 3.881635 3.8352313 4.370405 5.3554211 2.792283 8.6846645 6.876851 16.7910905 12.027631 24.0935075.023358.033116 1.771747 2.183478 1.12016 5.650872-.77019 4.098541-4.031871 5.758834-4.515523 6.017681-10.074269 5.391674-21.588444 8.449412-33.817752 8.449412-39.596719 0-71.696203-32.056412-71.696203-71.6zm182.227824 71.599984c-39.596719 0-71.696202-32.056412-71.696202-71.6 0-39.5435881 32.099483-71.6 71.696202-71.6 39.59672 0 71.696203 32.0564119 71.696203 71.6 0 39.543588-32.099483 71.6-71.696203 71.6zm0-44.75c14.84877 0 26.886076-12.0211545 26.886076-26.85 0-14.8288455-12.037306-26.85-26.886076-26.85-14.848769 0-26.886075 12.0211545-26.886075 26.85 0 14.8288455 12.037306 26.85 26.886075 26.85z" fill="#00c590" fill-rule="evenodd"/></svg>