<svg xmlns="http://www.w3.org/2000/svg"><defs><font id="jegicon" horiz-adv-x="512"><font-face font-family="jegicon" units-per-em="512" ascent="480" descent="-32"/><glyph glyph-name="foggy-lg" unicode="a" d="M455 277c34-15 57-48 57-87v-10c0-2-2-2-2-4-6-45-45-81-93-81H95c-48 0-87 36-93 81-2 0-2 2-2 4v10c0 39 23 72 57 87v21c8 66 64 119 133 119 43 0 81-21 106-53 17 10 34 15 55 15 57 0 104-45 104-102zm-104 83c-21 0-40-7-55-19h108c-13 12-32 19-53 19zm-161 38c-23 0-46-7-63-19h125c-17 12-39 19-62 19zm-86-38c-3-5-9-11-13-19h195c-3 8-7 14-13 19zm-20-38c-4-5-6-11-6-19h354c-2 8-5 14-9 19zm352-38H76c0-5 0-13 2-19h358zM46 246c-8-5-12-11-17-19h453c-4 8-10 14-15 19zm371-132c19 0 36 7 52 19H46c13-12 30-19 49-19zm67 38c2 5 5 11 5 18H21c2-7 4-13 8-18zM19 190h472c0 5 0 13-2 18H21c-2-5-2-13-2-18z"/><glyph glyph-name="rainy-lg" unicode="h" d="M142 133c6 0 10-4 10-10V85c0-5-4-9-10-9-5 0-9 4-9 9v38c0 6 4 10 9 10zm57-38c6 0 10-4 10-10V47c0-5-4-9-10-9s-9 4-9 9v38c0 6 4 10 9 10zm57 38c6 0 10-4 10-10V85c0-5-4-9-10-9s-9 4-9 9v38c0 6 3 10 9 10zm199 201c34-15 57-48 57-87 0-54-42-95-95-95H95c-53 0-95 41-95 95 0 39 23 72 57 87v7c0 74 59 133 133 133 43 0 81-21 106-53 17 10 34 15 55 15 57 0 104-45 104-102zm-38-163c42 0 76 34 76 76 0 36-24 66-57 74v11c0 47-38 85-85 85-23 0-44-9-59-24-19 37-59 62-102 62-63 0-114-51-114-114 0-7 0-13 2-20-34-8-59-38-59-74 0-42 34-76 76-76zm-47-38c6 0 9-4 9-10V85c0-5-3-9-9-9s-10 4-10 9v38c0 6 4 10 10 10zm-57-38c6 0 9-4 9-10V47c0-5-3-9-9-9s-10 4-10 9v38c0 6 4 10 10 10z"/><glyph glyph-name="windy-sm" unicode="i" d="M341 370c0-42-34-76-76-76H38v38h227c21 0 38 17 38 38s-17 38-38 38c-20 0-38-17-38-38h-37c0 42 34 76 75 76 42 0 76-34 76-76zm95 0c42 0 76-34 76-76s-34-76-76-76H0v38h436c21 0 38 17 38 38s-17 38-38 38-38-17-38-38h-38c0 42 34 76 76 76zm-57-190c32 0 57-24 57-57 0-32-24-57-57-57-32 0-57 27-57 57h38c0-11 8-19 19-19 12 0 19 8 19 19 0 12-7 19-19 19H114v38z"/><glyph glyph-name="sunny-lg" unicode="j" d="M80 257c0-8-5-13-13-13H13c-8 0-13 5-13 13 0 6 5 14 13 14h54c8 0 13-6 13-14zm317 124c-3-6-14-6-19 0-5 5-5 13 0 18l37 38c6 5 14 5 19 0 6-5 6-14 0-19zM113 134c5 5 13 3 18 0 6-5 6-13 0-19L94 78c-5-6-14-6-19 0-5 5-5 13 0 19zm142 298c-6 0-14 5-14 13v54c0 8 8 13 14 13 8 0 13-5 13-13v-54c0-8-5-13-13-13zm-142-51l-38 37c-5 5-5 14 0 19s14 5 19 0l37-38c6-5 6-13 0-18-5-6-13-6-18 0zm386-110c5 0 13-8 13-14 0-8-5-13-13-13h-54c-8 0-13 5-13 13s5 14 13 14zM255 80c8 0 13-5 13-13V13c0-8-5-13-13-13s-14 5-14 13v54c0 8 6 13 14 13zm142 54l37-37c6-6 6-14 0-19-5-6-13-6-19 0l-37 37c-5 6-5 14 0 19s13 5 19 0zM255 405c83 0 147-67 147-148 0-80-67-147-147-147-81 0-148 67-148 147 0 81 67 148 148 148zm0-268c67 0 120 53 120 120 0 68-53 121-120 121s-121-53-121-121c0-67 54-120 121-120z"/><glyph glyph-name="rainy-day-lg" unicode="k" d="M217 428l-24 24c-4 4-4 9 0 12 3 4 8 4 12 0l24-24c3-3 3-8 0-12-4-3-9-3-12 0zM154 85c5 0 8-3 8-8V43c0-5-3-9-8-9-6 0-9 4-9 9v34c0 5 4 8 9 8zm51-34c5 0 8-3 8-8V9c0-6-3-9-8-9s-9 3-9 9v34c0 5 4 8 9 8zm213 299c0 3 4 8 9 8h34c5 0 8-3 8-8s-3-9-8-9h-34c-6 0-9 4-9 9zm-20 78c-4-3-9-3-12 0-4 4-4 9 0 12l24 24c3 4 8 4 12 0 3-3 3-8 0-12zm-91 33c-5 0-8 3-8 8v34c0 6 3 9 8 9s9-3 9-9v-34c0-5-4-8-9-8zM256 85c5 0 9-3 9-8V43c0-5-4-9-9-9s-9 4-9 9v34c0 5 4 8 9 8zm179 181c31-13 51-42 51-78 0-48-37-86-85-86H111c-48 0-85 38-85 86 0 36 20 65 51 78v7c0 67 53 120 119 120 9 0 17-2 26-4 15 33 48 55 85 55 51 0 94-43 94-94v-12c21-17 34-43 34-72zM307 427c-29 0-56-17-68-41 20-9 39-22 53-41 15 8 31 13 49 13 16 0 29-3 43-10v2c0 43-34 77-77 77zm94-308c38 0 68 31 68 69 0 32-22 60-51 66v11c0 42-34 76-77 76-20 0-39-8-52-22-18 34-53 56-93 56-56 0-102-46-102-102 0-7 0-12 2-19-31-7-53-34-53-66 0-38 30-69 68-69zm-43-34c5 0 9-3 9-8V43c0-5-3-9-9-9-5 0-8 4-8 9v34c0 5 3 8 8 8zm-51-34c5 0 9-3 9-8V9c0-6-4-9-9-9s-8 3-8 9v34c0 5 3 8 8 8z"/><glyph glyph-name="snowy-sm" unicode="l" d="M184 119c2-5 0-11-4-13l-19-11 19-12c4-2 6-7 4-11-4-4-9-6-13-4l-19 12V59c0-6-4-10-10-10-5 0-9 4-9 10v21l-19-12c-4-4-10-2-13 2-2 6 0 11 3 13l19 12-19 11c-5 4-5 10-3 13 3 4 9 6 13 4l19-11v21c0 5 4 9 9 9 6 0 10-4 10-9v-21l19 11c5 2 11 0 13-4zm114-18c2-6 0-12-4-14l-19-11 19-12c4-1 6-7 4-13-4-4-10-6-13-4l-19 12V38c0-6-4-10-10-10s-9 4-9 10v21l-19-12c-6-2-12 0-14 4-2 6 0 12 4 13l19 12-19 11c-6 4-6 10-4 14 4 3 10 5 14 3l19-11v21c0 5 3 9 9 9s10-4 10-9V93l19 11c5 2 11 0 13-3zm114 18c2-5 0-11-4-13l-19-11 19-12c4-2 6-7 4-13-4-4-10-6-14-4l-19 12V57c0-6-3-10-9-10s-10 4-10 10v21l-19-12c-5-2-11 0-13 4-2 6 0 11 4 13l19 12-19 11c-6 4-6 10-4 13 4 4 10 6 13 4l19-11v21c0 5 4 9 10 9s9-4 9-9v-21l19 11c6 2 12 0 14-4zm43 224c34-15 57-47 57-87 0-53-42-95-95-95H95c-53 0-95 42-95 95 0 40 23 72 57 87v8c0 74 59 133 133 133 43 0 81-21 106-53 17 9 34 15 55 15 57 0 104-46 104-103z"/><glyph glyph-name="rainy-sm" unicode="m" d="M199 95c6 0 10-4 10-10V47c0-5-4-9-10-9s-9 4-9 9v38c0 6 4 10 9 10zm-57 38c6 0 10-4 10-10V85c0-5-4-9-10-9-5 0-9 4-9 9v38c0 6 4 10 9 10zm114 0c6 0 10-4 10-10V85c0-5-4-9-10-9s-9 4-9 9v38c0 6 3 10 9 10zm199 201c34-15 57-48 57-87 0-54-42-95-95-95H95c-53 0-95 41-95 95 0 39 23 72 57 87v7c0 74 59 133 133 133 43 0 81-21 106-53 17 10 34 15 55 15 57 0 104-45 104-102zm-85-201c6 0 9-4 9-10V85c0-5-3-9-9-9s-10 4-10 9v38c0 6 4 10 10 10zm-57-38c6 0 9-4 9-10V47c0-5-3-9-9-9s-10 4-10 9v38c0 6 4 10 10 10z"/><glyph glyph-name="rainy-night-lg" unicode="n" d="M309 53c5 0 9-4 9-9V9c0-5-4-9-9-9s-9 4-9 9v35c0 5 4 9 9 9zm-53 35c5 0 9-3 9-9V44c0-5-4-9-9-9s-9 4-9 9v35c0 6 4 9 9 9zm-106 0c5 0 9-3 9-9V44c0-5-3-9-9-9-5 0-9 4-9 9v35c0 6 4 9 9 9zm53-35c5 0 9-4 9-9V9c0-5-3-9-9-9-5 0-9 4-9 9v35c0 5 4 9 9 9zm238 222c32-14 53-44 53-81 0-49-39-88-88-88H106c-49 0-88 39-88 88 0 37 21 67 53 81v7c0 69 54 124 123 124 20 0 39-5 55-12-2 7-2 14-2 21 0 46 32 83 74 93 7 2 13 4 20 4-4-9-5-18-5-26 0-45 35-80 79-80 9 0 18 2 26 5 0-7-1-14-1-19-6-19-14-35-29-48 18-17 30-42 30-69zM318 491c-30-13-53-41-53-76 0-14 3-27 9-37 5-5 12-13 17-20 16 9 32 15 52 15 19 0 37-6 53-16 10 8 17 21 23 33h-4c-53 0-97 44-97 97zm88-367c39 0 71 31 71 70 0 34-23 62-53 69v11c0 44-35 79-80 79-21 0-40-9-54-23-18 35-55 58-96 58-58 0-106-47-106-106 0-7 0-12 2-19-32-7-55-35-55-69 0-39 32-70 71-70zm-44-36c5 0 9-3 9-9V44c0-5-4-9-9-9s-9 4-9 9v35c0 6 4 9 9 9z"/><glyph glyph-name="cloudy-lg" unicode="o" d="M461 337c30-7 51-33 51-64 0-37-30-67-66-67h-17c10-13 17-31 17-49 0-46-36-83-83-83H83c-47 0-83 37-83 83 0 35 20 63 50 76v6c0 65 51 116 115 116 13 0 25-2 37-5 8 32 36 55 71 55 13 0 24-4 34-9 15 25 42 42 73 42 46 0 83-37 83-83 0-6 0-11-2-18zM363 91c37 0 66 30 67 66 0 31-22 58-50 64v10c0 42-33 75-74 75-20 0-38-9-52-22-16 33-51 55-89 55-54 0-99-45-99-100 0-6 0-11 2-18-30-6-52-33-52-64 0-36 30-66 67-66zm83 132c28 0 50 22 50 50s-22 49-50 49h-8c5 10 8 22 8 33 0 37-30 66-66 66-31 0-58-21-64-51-10 12-27 18-43 18-28 0-50-18-57-44 17-9 30-20 42-35 15 8 30 13 48 13 49 0 91-40 91-89 6-3 11-7 16-10z"/><glyph glyph-name="snowy-night-sm" unicode="p" d="M294 65c1-5 0-10-4-12l-17-10 17-11c4-1 5-6 4-12-4-3-9-5-12-3l-17 10V9c0-6-4-9-9-9s-9 3-9 9v18l-17-10c-5-2-10 0-12 3-1 6 0 11 4 12l17 11-17 10c-5 3-5 8-4 12 4 3 9 5 12 3l17-10v19c0 5 4 8 9 8s9-3 9-8V58l17 10c5 2 10 0 12-3zM191 82c2-5 0-10-3-12l-17-10 17-11c3-1 5-6 3-10-3-3-8-5-12-3l-17 10V27c0-5-3-8-8-8s-9 3-9 8v19l-17-10c-3-4-8-2-12 1-2 6 0 11 4 12l17 11-17 10c-6 3-6 9-4 12 4 3 9 5 12 3l17-10v19c0 5 4 8 9 8s8-3 8-8V75l17 10c5 2 11 0 12-3zm244 201c31-13 52-42 51-78 0-48-37-86-85-86H111c-48 0-85 38-85 86 0 36 20 65 51 78v7c0 67 53 120 119 120 19 0 38-6 53-12-1 6-1 13-1 20 0 45 30 80 71 91 7 1 12 3 19 3-3-9-5-17-5-26 0-42 34-76 77-76 8 0 17 1 25 5 0-7-1-14-1-19-5-19-14-34-28-46 17-17 29-41 29-67zm-42 77c8 9 17 21 20 33h-3c-52 0-94 42-94 93v4c-29-10-51-38-51-72 0-14 3-25 10-37 5-6 12-12 17-19 15 8 31 13 49 13 19 0 36-5 52-15zm3-278c2-5 0-10-3-12l-17-10 17-11c3-1 5-6 3-12-3-3-9-5-12-3l-17 10V26c0-6-3-9-9-9-5 0-8 4-8 9v18l-17-10c-5-2-10 0-12 3-2 6 0 11 3 12l17 11-17 10c-5 3-5 9-3 12 3 3 8 5 12 3l17-10v19c0 5 3 8 8 8 6 0 9-3 9-8V75l17 10c5 2 10 0 12-3z"/><glyph glyph-name="rainy-day-sm" unicode="q" d="M218 431l-23 23c-3 4-3 9 0 12s8 3 11 0l24-23c3-4 3-9 0-12-4-3-9-3-12 0zm88 31c-5 0-9 4-9 9v33c0 5 4 8 9 8s8-3 8-8v-33c0-5-4-9-8-9zM132 66c0 11 6 17 17 17s16-6 16-17-5-16-16-16-17 5-17 16zm281 289c0 3 3 8 8 8h33c5 0 8-3 8-8s-3-8-8-8h-33c-5 0-8 3-8 8zm-20 76c-3-3-8-3-11 0-4 3-4 8 0 12l23 23c3 3 8 3 11 0 4-3 4-8 0-12zm36-157c30-13 50-41 50-76 0-46-36-82-83-82H116c-47 0-83 36-83 82 0 35 20 63 50 76v7c0 64 51 115 115 115 9 0 17-1 25-3 15 31 46 53 83 53 49 0 90-41 90-91v-11c20-17 33-42 33-70zm-90 89c14 0 28-3 41-10 0 43-33 76-74 76-29 0-55-16-67-39 20-8 38-22 52-40 15 8 29 13 48 13zm8-297c0 11 5 17 16 17s17-6 17-17-6-16-17-16-16 5-16 16zM182 16c0 11 5 17 16 17s17-6 17-17-6-16-17-16-16 5-16 16zm66 50c0 11 5 17 16 17s17-6 17-17-6-16-17-16-16 5-16 16zm49-50c0 11 6 17 17 17s16-6 16-17-5-16-16-16-17 5-17 16z"/><glyph glyph-name="sunny-day-sm" unicode="r" d="M252 349c-5 0-13 5-13 13v53c0 8 5 14 13 14s13-6 13-14v-53c0-8-5-13-13-13zm175-172c0 5 5 13 13 13h53c8 0 14-5 14-13 0-9-6-14-14-14h-53c-8 0-13 6-13 14zm-34 121c-3-5-14-5-19 0-5 6-5 14 0 19l37 37c5 5 13 5 19 0 5-5 5-13 0-18zM109 163c-3 5-3 8-3 14 0 79 67 145 146 145 80 0 146-66 146-145v-14h-66l-77 67-77-67zm382-53c8 0 16-5 21-13 0-8-5-14-13-14H337l-32 27-48 40-47-40-32-27H16C8 83 3 89 3 97s5 13 13 13h143l93 80 93-80zM13 163c-8 0-13 5-13 14 0 5 5 13 13 13h53c8 0 14-5 14-13 0-9-6-14-14-14zm98 135l-37 38c-5 5-5 13 0 18 6 5 14 5 19 0l37-37c5-5 5-13 0-19-5-5-13-5-19 0z"/><glyph glyph-name="foggy-sm" unicode="s" d="M430 341c6-5 10-11 14-19H62c2 6 4 14 8 19zm-79 38c23 0 43-7 61-19H82c3 8 9 14 15 19h186c3-3 9-9 13-15 17 10 34 15 55 15zm100-76c2-5 2-13 4-18H57c0 5 0 13 2 18zM190 417c24 0 49-7 68-19H121c19 12 44 19 69 19zM0 190h512c0-6 0-14-2-19H2c-2 5-2 13-2 19zm19-57c-4 5-8 11-11 19h496c-3-8-7-14-11-19zm455 132c8-5 13-11 19-18H19c6 7 11 13 19 18zM95 95c-21 0-42 7-57 19h436c-15-12-36-19-57-19zm409 133c2-6 4-14 6-19H2c2 5 4 13 6 19z"/><glyph glyph-name="thunderstorm-night-sm" unicode="t" d="M435 283c31-13 51-42 51-78 0-48-37-86-85-86H282L162 0l43 119h-94c-48 0-85 38-85 86 0 36 20 65 51 78v7c0 67 53 120 119 120 19 0 38-6 53-12-1 6-1 13-1 20 0 45 30 80 71 91 7 1 12 3 19 3-3-9-5-17-5-26 0-42 34-76 77-76 8 0 17 1 25 5 0-7-1-14-1-19-6-19-14-34-28-46 17-17 29-41 29-67zM205 67l104 104h-43l26 68h-67l-39-102h44zm188 293c8 9 17 21 20 33h-3c-52 0-94 42-94 93v4c-29-10-51-38-51-72 0-14 3-27 10-37 5-6 12-12 17-19 15 8 31 13 49 13 19 0 36-5 52-15z"/><glyph glyph-name="cloudy-day-sm" unicode="u" d="M436 303c0 4 4 10 10 10h38c5 0 9-4 9-10 0-5-4-9-9-9h-38c-6 0-10 4-10 9zm-23 88c-3-4-9-4-13 0-4 3-4 9 0 13l27 27c3 3 9 3 13 0 4-4 4-10 0-14zm-100 36c-6 0-10 4-10 9v38c0 6 4 10 10 10s9-4 9-10v-38c0-6-3-9-9-9zm142-217c34-15 57-47 57-87 0-53-42-95-95-95H95C42 28 0 70 0 123c0 40 23 72 57 87v8c0 74 59 133 133 133 9 0 19-2 28-4 17 36 53 61 95 61 57 0 104-48 104-105v-13c23-19 38-47 38-80zM351 313c17 0 32-4 47-11 0 49-38 87-85 87-32 0-63-19-76-46 23-9 44-24 59-45 17 9 34 15 55 15zm-139 78l-26 26c-4 4-4 10 0 14 4 3 9 3 13 0l27-27c3-4 3-10 0-13-4-4-10-4-14 0z"/><glyph glyph-name="thunderstorm-sm" unicode="v" d="M455 343c34-15 57-47 57-87 0-53-42-95-95-95H284L152 28l47 133H95c-53 0-95 42-95 95 0 40 23 72 57 87v8c0 74 59 133 133 133 43 0 81-21 106-54 17 10 34 16 55 16 57 0 104-46 104-103zM199 102l116 116h-48l29 76h-74l-44-114h50z"/><glyph glyph-name="thunderstorm-day-sm" unicode="x" d="M393 431c-3-3-8-3-11 0-4 3-4 8 0 12l23 23c3 3 8 3 11 0 4-3 4-8 0-12zm36-157c30-13 50-41 50-76 0-46-36-82-83-82H281L165 0l41 116h-90c-47 0-83 36-83 82 0 35 20 63 50 76v7c0 64 51 115 115 115 9 0 17-1 25-3 15 31 46 53 83 53 49 0 90-41 90-91v-11c20-17 33-42 33-70zM206 64l101 101h-41l25 66h-65l-38-99h43zm133 299c14 0 28-3 41-10 0 43-33 76-74 76-29 0-55-16-67-39 20-8 38-22 52-40 15 8 29 13 48 13zm-33 99c-5 0-9 4-9 9v33c0 5 4 8 9 8s8-3 8-8v-33c0-5-4-9-8-9zm107-107c0 3 3 8 8 8h33c5 0 8-3 8-8s-3-8-8-8h-33c-5 0-8 3-8 8zm-195 76l-23 23c-3 4-3 9 0 12s8 3 11 0l24-23c3-4 3-9 0-12-4-3-9-3-12 0z"/><glyph glyph-name="cloudy-night-lg" unicode="y" d="M455 220c34-15 57-47 57-87 0-53-42-95-95-95H95C42 38 0 80 0 133c0 40 23 72 57 87v7c0 74 59 133 133 133 21 0 41-5 59-13-2 8-2 15-2 23 0 49 34 89 79 100 8 2 13 4 21 4-4-9-6-19-6-28 0-48 38-86 86-86 9 0 19 2 28 6 0-8-2-15-2-21-5-21-15-38-30-51 19-19 32-46 32-74zM322 449c-32-11-56-41-57-79 0-15 4-31 10-42 6-6 13-13 19-21 17 10 34 15 55 15s40-5 57-17c11 10 19 23 25 36h-4c-57 0-105 48-105 105zm95-392c42 0 76 34 76 76 0 36-24 66-57 74v11c0 48-38 85-85 85-23 0-44-9-59-24-19 38-59 62-102 62-63 0-114-51-114-114 0-7 0-13 2-20-34-8-59-38-59-74 0-42 34-76 76-76h322z"/><glyph glyph-name="cloudy-sm" unicode="z" d="M462 337c30-6 52-33 50-64 0-35-28-65-63-67-8 15-22 28-37 37-6 54-53 96-107 96-15 0-30-4-43-10-15 16-33 30-55 36 13 24 38 40 66 40 14 0 25-3 35-8 15 25 42 41 73 41 46 0 83-36 83-83 0-6 0-11-2-18zm-64-104c29-13 49-42 49-76 0-47-36-83-83-83H83c-47 0-83 36-83 83 0 34 20 63 50 76v6c0 65 51 116 116 116 38 0 71-18 92-46 15 8 30 13 48 13 50 0 92-39 92-89z"/><glyph glyph-name="sunny-night-lg" unicode="A" d="M397 339c-3-5-14-5-19 0s-5 14 0 19l37 37c6 6 14 6 19 0 6-5 6-13 0-18zm-142 51c-6 0-14 5-14 13v54c0 8 8 13 14 13 8 0 13-5 13-13v-54c0-8-5-13-13-13zm177-174c0 5 5 13 13 13h54c8 0 13-5 13-13s-5-14-13-14h-54c-8 0-13 6-13 14zM113 339l-38 38c-5 5-5 13 0 18 5 6 14 6 19 0l37-37c6-5 6-14 0-19-5-5-13-5-18 0zM13 203c-8 0-13 5-13 13 0 5 5 13 13 13h54c8 0 13-5 13-13s-5-13-13-13zm483-54c8 0 13-5 13-14 0-8-5-13-13-13H348l-93-80-94 80H13c-5 0-13 5-13 13 0 9 8 14 13 14h164l32-27 43-40 48 40 32 27zm-386 54c-3 5-3 8 0 13 0 80 67 147 147 147 81 0 148-67 148-147v-13h-27v13c0 67-53 121-121 121-67 0-120-54-120-121v-13z"/><glyph glyph-name="sunny-day-lg" unicode="B" d="M253 349c-5 0-13 6-13 14v53c0 8 5 13 13 13 9 0 14-5 14-13v-53c0-8-6-14-14-14zm176-173c0 5 6 13 14 14h53c8 0 13-6 13-14s-5-13-13-13h-53c-8 0-14 5-14 13zm-322-13v13c0 80 66 147 146 147s147-67 147-147v-13h-27v13c0 67-53 120-120 120-66 0-120-53-120-120v-13zm288 136c-3-6-14-6-19 0-5 5-5 13 0 18l37 38c6 5 14 5 19 0 5-6 5-14 0-19zm-283 0l-37 37c-6 5-6 13 0 19 5 5 13 5 18 0l38-38c5-5 5-13 0-18-6-6-14-6-19 0zm381-190c8 0 14-5 19-13 0-8-5-13-13-13H336l-32 26-48 40-48-40-32-26H13C8 83 0 88 0 96s8 13 13 13h147l93 80 94-80zM13 163c-8 0-13 5-13 13 0 6 5 14 13 14h54c8 0 13-6 13-14s-5-13-13-13z"/><glyph glyph-name="snowy-day-sm" unicode="C" d="M393 431c-3-3-8-3-11 0-4 3-4 8 0 12l23 23c3 3 8 3 11 0 4-3 4-8 0-12zm-87 31c-5 0-9 4-9 9v33c0 5 4 8 9 8s8-3 8-8v-33c0-5-4-9-8-9zm-88-31l-23 23c-3 4-3 9 0 12s8 3 11 0l24-23c3-4 3-9 0-12-4-3-9-3-12 0zm195-76c0 3 3 8 8 8h33c5 0 8-3 8-8s-3-8-8-8h-33c-5 0-8 3-8 8zM391 79c2-5 0-10-3-11l-16-10 16-10c3-2 5-7 3-12-3-3-8-5-11-3l-17 10V25c0-5-3-9-8-9s-8 4-8 9v18l-17-10c-5-2-10 0-11 3-2 5 0 10 3 12l17 10-17 10c-5 3-5 8-3 11 3 4 8 5 11 4l17-10v18c0 5 3 8 8 8s8-3 8-8V73l17 10c5 1 10 0 11-4zm38 195c30-13 50-41 50-76 0-46-36-82-83-82H116c-47 0-83 36-83 82 0 35 20 63 50 76v7c0 64 51 115 115 115 9 0 17-1 25-3 15 31 46 53 83 53 49 0 90-41 90-91v-11c20-17 33-42 33-70zm-90 89c14 0 28-3 41-10 0 43-33 76-74 76-29 0-55-16-67-39 20-8 38-22 52-40 15 8 29 13 48 13zM193 79c2-5 0-10-3-11l-17-10 17-10c3-2 5-7 3-10-3-3-8-5-11-3l-17 10V26c0-5-3-8-8-8s-8 4-8 8v19l-17-10c-3-4-8-2-11 1-2 5 0 10 3 12l16 10-16 10c-5 3-5 8-3 11 3 4 8 5 11 4l17-10v18c0 5 3 8 8 8s8-3 8-8V73l17 10c5 1 10 0 11-4zm99-16c2-5 0-10-3-12l-16-10 16-10c3-1 5-6 3-11-3-4-8-5-11-4l-17 10V8c0-5-3-8-8-8s-8 3-8 8v18l-17-10c-5-1-10 0-11 4-2 5 0 10 3 11l16 10-16 10c-5 3-5 8-3 12 3 3 8 5 11 3l17-10v18c0 5 3 9 8 9s8-4 8-9V56l17 10c5 2 10 0 11-3z"/><glyph glyph-name="snowy-night-lg-1" unicode="D" d="M265 85c10 0 17-6 17-17 0-10-7-17-17-17-11 0-17 7-17 17 0 11 6 17 17 17zm-69-51c11 0 17-7 17-17s-6-17-17-17c-10 0-17 7-17 17s7 17 17 17zm-51 51c10 0 17-6 17-17 0-10-7-17-17-17s-17 7-17 17c0 11 7 17 17 17zm171-51c10 0 17-7 17-17s-7-17-17-17-17 7-17 17 7 17 17 17zm51 51c10 0 17-6 17-17 0-10-7-17-17-17s-17 7-17 17c0 11 7 17 17 17zm68 198c31-13 52-42 51-78 0-48-37-86-85-86H111c-48 0-85 38-85 86 0 36 20 65 51 78v7c0 67 53 120 119 120 19 0 38-6 53-12-1 6-1 13-1 20 0 45 30 80 71 91 7 1 12 3 19 3-3-9-5-17-5-26 0-42 34-76 77-76 8 0 17 1 25 5 0-7-1-14-1-19-5-19-14-34-28-46 17-17 29-41 29-67zM318 490c-31-10-52-39-52-72 0-14 4-27 10-37 7-6 12-12 18-19 13 8 29 13 47 13 19 0 36-5 52-15 10 9 17 19 22 32h-4c-51 0-93 43-93 94zm83-354c38 0 68 31 69 69 0 32-23 60-52 66v11c0 42-34 76-76 76-21 0-40-8-53-22-18 33-52 56-93 56-56 0-102-46-102-102 0-7 0-12 2-19-31-7-53-34-53-66 0-38 30-69 68-69z"/><glyph glyph-name="snowy-night-lg" unicode="E" d="M218 431l-23 23c-3 3-3 9 0 12s8 3 11 0l24-23c3-4 3-9 0-12-4-3-9-3-12 0zM149 83c10 0 16-7 16-17s-6-16-16-16-17 6-17 16 7 17 17 17zm157 379c-5 0-9 4-9 9v33c0 5 4 8 9 8s8-3 8-8v-33c0-5-4-9-8-9zm107-107c0 3 3 8 8 8h33c5 0 8-3 8-8s-3-8-8-8h-33c-5 0-8 3-8 8zm-20 76c-3-3-8-3-11 0-4 3-4 8 0 12l23 23c3 3 8 3 11 0 4-3 4-9 0-12zM198 33c10 0 17-7 17-17 0-9-7-16-17-16s-16 7-16 16c0 10 6 17 16 17zm116 0c10 0 16-7 16-17 0-9-6-16-16-16s-17 7-17 16c0 10 7 17 17 17zm115 241c30-13 50-41 50-76 0-46-36-82-83-82H116c-47 0-83 36-83 82 0 35 20 63 50 76v7c0 64 51 115 115 115 9 0 17-1 25-3 15 31 46 53 83 53 49 0 90-41 90-91v-12c20-16 33-41 33-69zM306 429c-29 0-55-16-67-41 22-8 38-21 52-39 15 9 29 14 48 14 14 0 28-3 41-10 0 43-33 76-74 76zm90-297c37 0 66 30 67 66 0 32-22 58-50 65v9c0 42-33 75-74 75-20 0-38-8-52-22-16 32-49 55-89 55-54 0-99-45-99-99 0-7 0-12 2-18-30-7-51-34-51-65 0-36 29-66 66-66zM264 83c10 0 17-7 17-17s-7-16-17-16-16 6-16 16 6 17 16 17zm99 0c10 0 17-7 17-17s-7-16-17-16-16 6-16 16 6 17 16 17z"/><glyph glyph-name="windy-lg" unicode="F" d="M379 209c21 0 38-18 38-38 0-21-17-38-38-38s-38 17-38 38h19c0-12 8-19 19-19 12 0 19 7 19 19 0 11-7 19-19 19H114v19zm-38 113c0-32-24-57-57-57H57v19h227c21 0 38 18 38 38 0 21-17 38-38 38-20 0-38-17-38-38h-19c0 33 25 57 57 57 33 0 57-24 57-57zm95 57c42 0 76-34 76-76 0-41-34-75-76-75H0v18h436c32 0 57 25 57 57 0 33-25 57-57 57s-57-24-57-57h-19c0 42 34 76 76 76z"/><glyph glyph-name="sunny-sm" unicode="G" d="M80 257c0-8-5-13-13-13H13c-8 0-13 5-13 13 0 6 5 14 13 14h54c8 0 13-6 13-14zm33-123c5 5 13 3 18 0 6-5 6-13 0-19L94 78c-5-6-14-6-19 0-5 5-5 13 0 19zm284 247c-3-6-14-6-19 0-5 5-5 13 0 18l37 38c6 5 14 5 19 0 6-5 6-14 0-19zm-142 51c-6 0-14 5-14 13v54c0 8 8 13 14 13 8 0 13-5 13-13v-54c0-8-5-13-13-13zm-142-51l-38 37c-5 5-5 14 0 19s14 5 19 0l37-38c6-5 6-13 0-18-5-6-13-6-18 0zM255 80c8 0 13-5 13-13V13c0-8-5-13-13-13s-14 5-14 13v54c0 8 6 13 14 13zm244 191c5 0 13-8 13-14 0-8-5-13-13-13h-54c-8 0-13 5-13 13s5 14 13 14zM397 134l37-37c6-6 6-14 0-19-5-6-13-6-19 0l-37 37c-5 6-5 14 0 19s13 5 19 0zM107 257c0 99 49 148 148 148 98 0 147-49 147-148 0-98-49-147-147-147-99 0-148 49-148 147z"/><glyph glyph-name="thunderstorm-lg" unicode="H" d="M455 343c34-15 57-47 57-87 0-53-42-95-95-95H284L152 28l47 133H95c-53 0-95 42-95 95 0 40 23 72 57 87v8c0 74 59 133 133 133 43 0 81-21 106-54 17 10 34 16 55 16 57 0 104-46 104-103zM199 102l116 116h-48l29 76h-74l-44-114h50zm218 78c42 0 76 34 76 76 0 36-24 66-57 74v11c0 48-38 86-85 86-23 0-44-10-59-25-19 38-59 63-102 63-63 0-114-52-114-114 0-8 0-13 2-21-34-8-59-38-59-74 0-42 34-76 76-76h64l50 133h114l-29-76h66l-57-57z"/><glyph glyph-name="sunny-night-sm" unicode="I" d="M256 391c-8 0-13 5-14 13v54c0 8 6 14 14 14s13-6 13-14v-54c0-8-5-13-13-13zm143-51c-6-6-14-6-19 0-5 5-5 13 0 18l38 38c5 5 13 5 19 0 5-5 5-13 0-19zM108 202v14c0 81 67 148 148 148s148-67 148-148v-14zm323 14c0 5 8 13 14 13h53c9 0 14-5 14-13 0-9-5-14-14-14h-53c-8 0-14 6-14 14zm67-68c9 0 14-5 14-13s-6-14-14-14H350l-94-81-94 81H14c-6 0-14 6-14 14s8 13 14 13h164l32-27 43-40 49 40 32 27zM113 340l-38 37c-5 6-5 14 0 19 6 5 14 5 19 0l38-38c5-5 5-13 0-18-5-6-13-6-19 0zM14 202c-9 0-14 6-14 14 0 5 5 13 14 13h53c8 0 14-8 14-13 0-8-8-14-14-14z"/><glyph glyph-name="thunderstorm-day-lg" unicode="J" d="M393 431c-3-3-8-3-12 0-3 3-3 8 0 12l24 23c3 3 8 3 11 0s3-8 0-12zm-88 31c-4 0-8 4-8 9v33c0 5 3 8 8 8s9-3 9-8v-33c0-5-4-9-9-9zm108-107c0 3 3 8 8 8h33c5 0 8-3 8-8s-3-8-8-8h-33c-5 0-8 3-8 8zm16-81c30-13 50-41 50-76 0-46-36-82-83-82H281L165 0l41 116h-90c-47 0-83 36-83 82 0 35 20 63 50 76v7c0 64 51 115 115 115 9 0 17-1 25-3 15 31 46 53 83 53 49 0 90-41 90-91v-11c20-17 33-42 33-70zM305 429c-28 0-54-16-66-39 20-9 38-22 52-40 15 8 29 13 48 13 14 0 29-3 41-10v2c0 41-33 74-75 74zM206 64l101 101h-41l25 66h-65l-38-99h43zm190 68c37 0 66 30 67 66 0 32-22 58-50 65v10c0 41-33 74-74 74-20 0-38-8-52-22-16 33-51 55-89 55-54 0-99-45-99-99 0-7 0-12 2-18-30-7-51-33-51-65 0-36 29-66 66-66h56l43 116h99l-25-66h58l-50-50h99zM218 431l-23 23c-3 4-3 9 0 12s8 3 11 0l24-23c3-4 3-9 0-12-4-3-9-3-12 0z"/><glyph glyph-name="thunderstorm-night-lg" unicode="K" d="M435 283c31-13 51-42 51-78 0-48-37-86-85-86H282L162 0l43 119h-94c-48 0-85 38-85 86 0 36 20 65 51 78v7c0 67 53 120 119 120 19 0 38-6 53-12-2 6-2 13-2 20 0 45 31 80 72 91 7 1 12 3 19 3-4-9-5-17-5-26 0-42 34-76 77-76 8 0 17 1 25 5 0-7-1-14-1-19-6-19-14-34-28-46 17-17 29-41 29-67zM316 490c-29-10-51-38-52-72 0-14 4-27 9-37 5-6 12-12 17-19 15 8 31 13 50 13 18 0 35-5 51-15 10 9 17 21 22 33h-3c-52 0-94 42-94 93zM205 67l104 104h-43l26 68h-67l-39-102h44zm196 70c38 0 68 30 68 68 0 32-22 60-51 66v11c0 42-34 76-77 76-20 0-39-8-52-22-18 34-53 57-93 57-56 0-102-47-102-103 0-7 0-12 2-19-31-7-53-34-53-66 0-38 30-68 68-68h58l44 119h103l-26-68h60l-51-51z"/><glyph glyph-name="cloudy-day-lg" unicode="L" d="M436 303c0 4 4 10 10 10h38c5 0 9-4 9-10 0-5-4-9-9-9h-38c-6 0-10 4-10 9zm-23 88c-3-4-9-4-13 0-4 3-4 9 0 13l27 27c3 3 9 3 13 0 4-4 4-10 0-14zm-100 36c-6 0-10 4-10 9v38c0 6 4 10 10 10s9-4 9-10v-38c0-6-3-9-9-9zm-101-36l-26 26c-4 4-4 10 0 14 4 3 9 3 13 0l27-27c3-4 3-10 0-13-4-4-10-4-14 0zm243-181c34-15 57-47 57-87 0-53-42-95-95-95H95C42 28 0 70 0 123c0 40 23 72 57 87v8c0 74 59 133 133 133 9 0 19-2 28-4 17 36 53 61 95 61 57 0 104-48 104-105v-13c23-19 38-47 38-80zM313 389c-32 0-63-19-76-46 23-9 44-24 59-45 17 9 34 15 55 15 17 0 32-4 47-11v1c0 48-38 86-85 86zM417 47c42 0 76 34 76 76 0 36-24 67-57 74v12c0 47-38 85-85 85-23 0-44-10-59-25-19 38-59 63-102 63-63 0-114-51-114-114 0-8 0-13 2-21-34-7-59-38-59-74 0-42 34-76 76-76z"/><glyph glyph-name="cloudy-night-sm" unicode="M" d="M455 220c34-15 57-47 57-87 0-53-42-95-95-95H95C42 38 0 80 0 133c0 40 23 72 57 87v7c0 74 59 133 133 133 21 0 41-5 59-13-2 8-2 15-2 23 0 49 34 89 79 100 8 2 13 4 21 4-4-9-6-19-6-28 0-48 38-86 86-86 9 0 19 2 28 6 0-8-2-15-2-21-5-21-15-38-30-51 19-19 32-46 32-74zm-47 85c9 10 19 23 23 36h-4c-57 0-105 48-105 105v3c-32-11-56-41-56-79 0-15 3-31 11-42 6-6 13-13 19-21 17 10 34 15 55 15s40-5 57-17z"/><glyph glyph-name="snowy-lg" unicode="N" d="M266 123c11 0 19-7 19-19 0-11-8-19-19-19-12 0-19 8-19 19 0 12 7 19 19 19zm-76-57c11 0 19-7 19-19 0-11-8-19-19-19-12 0-19 8-19 19 0 12 7 19 19 19zm-57 57c11 0 19-7 19-19 0-11-8-19-19-19-12 0-19 8-19 19 0 12 7 19 19 19zm322 220c34-15 57-47 57-87 0-53-42-95-95-95H95c-53 0-95 42-95 95 0 40 23 72 57 87v8c0 74 59 133 133 133 43 0 81-21 106-54 17 10 34 16 55 16 57 0 104-46 104-103zm-38-163c42 0 76 34 76 76 0 36-24 66-57 74v11c0 48-38 86-85 86-23 0-44-10-59-25-19 36-57 63-102 63-63 0-114-52-114-114 0-8 0-13 2-21-34-8-59-38-59-74 0-42 34-76 76-76h322zm-38-57c12 0 19-7 19-19 0-11-7-19-19-19-11 0-19 8-19 19 0 12 8 19 19 19zm-57-57c12 0 19-7 19-19 0-11-7-19-19-19-11 0-18 8-18 19 0 12 7 19 18 19z"/><glyph glyph-name="foggy-night-lg" unicode="O" d="M455 220c34-15 57-48 57-87v-10c0-2-2-2-2-4-6-45-45-81-93-81H95C47 38 8 74 2 119c-2 0-2 2-2 4v10c0 40 23 72 57 87v21c8 66 64 119 133 119 21 0 41-4 59-13-2 8-2 15-2 23 0 49 34 89 79 100 8 2 13 4 21 4-4-10-6-19-6-28 0-48 38-86 88-86 9 0 19 2 28 6-2-8-2-13-4-21-5-21-15-38-30-51 19-19 32-46 32-74zM322 451c-32-13-56-43-57-81 0-15 4-29 10-40 6-6 13-13 19-21 17 10 34 15 55 15s40-5 57-17c11 10 19 23 25 36h-4c-57 0-105 48-105 104zm82-167c-13 12-36 19-55 19s-38-7-53-19zm-214 57c-23 0-46-7-63-19h125c-17 12-39 19-62 19zm-86-38c-3-5-9-11-13-19h195c-3 8-7 14-13 19zm-20-38c-4-5-6-11-6-19h354c-2 8-5 14-9 19zm352-38H76c0-5 0-13 2-19h358zM46 190c-8-6-12-12-17-19h453c-4 7-10 13-15 19zM417 57c19 0 36 7 52 19H46c13-12 30-19 49-19zm67 38c2 5 5 13 5 19H21c2-8 4-14 8-19zM19 133h472c0 5 0 13-2 19H21c-2-6-2-14-2-19z"/><glyph glyph-name="foggy-day-lg" unicode="P" d="M212 391l-26 26c-4 4-4 10 0 13 4 4 9 4 13 0l27-26c3-4 3-10 0-13-4-4-10-4-14 0zm101 36c-6 0-10 3-10 9v38c0 6 4 9 10 9s9-3 9-9v-38c0-6-3-9-9-9zm100-36c-3-4-9-4-13 0-4 3-4 9 0 13l27 26c3 4 9 4 13 0 4-3 4-9 0-13zm23-88c0 4 4 10 10 10h38c5 0 9-4 9-10 0-5-4-9-9-9h-38c-6 0-10 4-10 9zm19-93c34-15 57-47 57-87v-9c0-2-2-2-2-4-6-45-45-81-93-81H95C47 29 8 65 2 110c-2 0-2 2-2 4v9c0 40 23 72 57 87v21c8 67 64 120 133 120 9 0 19-2 28-4 17 36 53 61 95 61 57 0 104-48 104-105v-13c23-19 38-47 38-80zM313 389c-32 0-63-19-76-46 23-9 44-25 59-45 17 9 34 15 55 15 17 0 34-4 47-12v2c0 48-38 86-85 86zm91-114c-13 11-36 19-55 19s-38-8-53-19zm-214 57c-23 0-46-8-63-19h125c-17 11-40 19-62 19zm-86-38c-4-6-9-12-13-19h195c-3 7-7 13-13 19zm-21-38c-3-6-5-12-5-19h354c-2 7-5 13-9 19zm353-38H76c0-6 0-13 2-19h358v19zM46 180c-8-6-12-11-18-19h454c-4 8-10 13-15 19zM417 47c19 0 36 8 51 19H46c13-11 30-19 49-19zm67 38c2 6 5 12 5 19H21c2-7 4-13 7-19zM19 123h472c0 6 0 13-2 19H21c-2-6-2-13-2-19z"/><glyph glyph-name="foggy-day-sm" unicode="Q" d="M212 391l-26 26c-4 4-4 10 0 14 4 3 9 3 13 0l27-27c3-4 3-10 0-13-4-4-10-4-14 0zm205-88v-9H82c3 8 9 13 15 19h186c3-4 9-10 13-15 17 9 34 15 55 15 17 0 32-4 47-11v1c0 48-38 86-85 86-32 0-63-19-76-48 8-2 13-5 21-9H121c19 11 44 19 69 19 9 0 19-2 28-4 17 36 53 61 95 61 57 0 104-48 104-105zm-4 88c-3-4-9-4-13 0-4 3-4 9 0 13l27 27c3 3 9 3 13 0 4-4 4-10 0-14zm-100 36c-6 0-10 4-10 9v38c0 6 4 10 10 10s9-4 9-10v-38c0-6-3-9-9-9zm123-124c0 4 4 10 10 10h38c5 0 9-4 9-10 0-5-4-9-9-9h-38c-6 0-10 4-10 9zm-6-28c6-6 10-11 14-19H62c2 6 4 13 8 19zm74-114c2-6 4-13 6-19H2c2 6 4 14 6 19zM19 66c-4 6-8 12-11 19h496c-3-7-7-13-11-19zm432 171c2-6 2-13 4-19H57c0 6 0 13 2 19zM0 123h512c0-5 0-13-2-19H2c-2 6-2 14-2 19zm95-95c-21 0-42 8-57 19h436c-15-11-36-19-57-19zm379 171c8-6 13-11 19-19H19c6 8 11 13 19 19z"/><glyph glyph-name="foggy-night-sm" unicode="R" d="M474 209c8-6 13-12 19-19H19c6 7 11 13 19 19zm-23 38c2-6 2-14 4-19H57c0 5 0 13 2 19zm-21 37c6-5 10-11 14-19H62c2 6 4 14 8 19zm21 61c-3-15-9-30-19-42H82c3 8 9 14 15 19h183c4-3 10-9 14-15 17 10 34 15 55 15s40-5 57-17c11 10 19 23 24 36h-3c-57 0-105 48-105 105v3c-32-11-57-41-57-79 0-10 2-19 6-29H121c19 12 44 19 69 19 20 0 41-5 58-13-2 8-2 15-2 23 0 49 35 89 80 100 8 2 13 4 21 4-4-9-6-19-6-28 0-48 38-86 86-86 9 0 19 2 28 6 0-8-2-15-4-21zm53-174c2-6 4-14 6-19H2c2 5 4 13 6 19zM0 133h512c0-6 0-14-2-19H2c-2 5-2 13-2 19zm95-95c-21 0-42 7-57 19h436c-15-12-36-19-57-19zM19 76c-4 6-8 11-11 19h496c-3-8-7-14-11-19z"/><glyph glyph-name="rainy-night-sm" unicode="S" d="M203 53c5 0 9-4 9-9V9c0-5-3-9-9-9-5 0-9 4-9 9v35c0 5 4 9 9 9zm53 35c5 0 9-3 9-9V44c0-5-4-9-9-9s-9 4-9 9v35c0 6 4 9 9 9zm-106 0c5 0 9-3 9-9V44c0-5-3-9-9-9-5 0-9 4-9 9v35c0 6 4 9 9 9zm291 187c32-14 53-44 53-81 0-49-39-88-88-88H106c-49 0-88 39-88 88 0 37 21 67 53 81v7c0 69 54 124 123 124 20 0 39-5 55-12-2 7-2 14-2 21 0 46 32 83 74 93 7 2 13 4 20 4-4-9-5-18-5-26 0-45 35-80 79-80 9 0 18 2 26 5 0-7-1-14-1-19-6-19-14-35-29-48 18-17 30-42 30-69zm-44 80c9 9 18 21 21 33h-3c-53 0-97 45-97 98v3c-30-11-53-39-53-74 0-14 3-27 11-39 5-5 12-12 17-19 16 9 32 14 51 14 20 0 37-5 53-16zM309 53c5 0 9-4 9-9V9c0-5-4-9-9-9s-9 4-9 9v35c0 5 4 9 9 9zm53 35c5 0 9-3 9-9V44c0-5-4-9-9-9s-9 4-9 9v35c0 6 4 9 9 9z"/><glyph glyph-name="angle-down" unicode="b" d="M506 400c8-9 8-21 0-29L276 119c-1-2-3-5-5-7-4-4-10-6-15-5-6-1-11 1-15 5-2 2-4 4-5 7L6 371c-8 8-8 20 0 28s21 8 29 0l221-241 221 242c8 7 21 7 29 0z"/><glyph glyph-name="bookmark" unicode="c" d="M96 512h320V0L256 128 96 0zM384 64v416H128V64l128 112z"/><glyph glyph-name="cross" unicode="d" d="M281 256L507 31c7-7 7-19 0-26s-19-7-26 0L256 231 31 5C24-2 12-2 5 5s-7 19 0 26l226 225L5 481c-7 7-7 19 0 26s19 7 26 0l225-226 225 226c7 7 19 7 26 0s7-19 0-26z"/><glyph glyph-name="angle-left" unicode="e" d="M158 256L399 35c8-8 8-21 0-29-7-8-20-8-28 0L119 236c-2 1-5 3-7 5-4 4-6 10-5 15-1 5 1 11 5 15 2 2 5 4 7 5l252 230c8 8 21 8 28 0 8-8 8-21 0-29z"/><glyph glyph-name="angle-right" unicode="f" d="M400 271c4-4 6-10 5-15 1-5-1-11-5-15-2-2-5-4-7-5L141 6c-8-8-21-8-29 0-7 8-7 21 0 29l242 221-242 221c-7 8-7 21 0 29 8 8 21 8 29 0l252-230c2-1 5-3 7-5z"/><glyph glyph-name="check" unicode="g" d="M507 427c7-6 7-16 0-22L186 85c-6-7-16-7-22 0h-1L5 244c-7 6-7 16 0 22 6 7 16 7 22 0l148-148 310 309c6 7 16 7 22 0z"/><glyph glyph-name="angle-up" unicode="w" d="M506 141c8-8 8-21 0-29-8-7-21-7-29 0L256 354 35 112c-8-7-21-7-29 0-8 9-8 21 0 29l230 252c1 2 3 5 5 7 4 4 9 6 15 5 5 1 11-1 15-5 2-2 4-5 5-7z"/></font>
</defs>
</svg>
